<svg width="262" height="245" viewBox="0 0 262 245" fill="none" xmlns="http://www.w3.org/2000/svg">
<path d="M6 55.747C146 -43.2529 228.665 10.4743 116 88.7469C28 149.884 57 213.747 159 155.747C257.633 99.6618 326 194.747 159 238.747" stroke="#5551FF" stroke-width="3"/>
<path d="M10.5 55C10.5 57.4853 8.48528 59.5 6 59.5C3.51472 59.5 1.5 57.4853 1.5 55C1.5 52.5147 3.51472 50.5 6 50.5C8.48528 50.5 10.5 52.5147 10.5 55Z" fill="white" stroke="#5551FF" stroke-width="3"/>
<path d="M164.5 239C164.5 241.485 162.485 243.5 160 243.5C157.515 243.5 155.5 241.485 155.5 239C155.5 236.515 157.515 234.5 160 234.5C162.485 234.5 164.5 236.515 164.5 239Z" fill="white" stroke="#5551FF" stroke-width="3"/>
<line x1="25.4434" y1="149.916" x2="228.443" y2="13.9163" stroke="#5551FF" stroke-width="2"/>
<path d="M233.5 13.7471C233.5 16.2324 231.485 18.2471 229 18.2471C226.515 18.2471 224.5 16.2324 224.5 13.7471C224.5 11.2618 226.515 9.24707 229 9.24707C231.485 9.24707 233.5 11.2618 233.5 13.7471Z" fill="white" stroke="#5551FF" stroke-width="3"/>
<path d="M30.5 150C30.5 152.485 28.4853 154.5 26 154.5C23.5147 154.5 21.5 152.485 21.5 150C21.5 147.515 23.5147 145.5 26 145.5C28.4853 145.5 30.5 147.515 30.5 150Z" fill="white" stroke="#5551FF" stroke-width="3"/>
<path d="M120.5 89.2471C120.5 91.7324 118.485 93.7471 116 93.7471C113.515 93.7471 111.5 91.7324 111.5 89.2471C111.5 86.7618 113.515 84.7471 116 84.7471C118.485 84.7471 120.5 86.7618 120.5 89.2471Z" fill="white" stroke="#5551FF" stroke-width="3"/>
</svg>
