<svg width="208" height="52" viewBox="0 0 208 52" fill="none" xmlns="http://www.w3.org/2000/svg">
<path d="M25.2472 20.5019C26.6962 16.5852 27.8239 13.3485 28.6366 10.798C29.4462 8.25058 29.8525 6.68705 29.8525 6.10425C29.8525 5.47758 29.7202 4.99818 29.443 4.65351C29.1785 4.30884 28.8036 4.13651 28.3279 4.13651C27.7232 4.13651 27.1058 4.63784 26.4789 5.64051C25.8489 6.63378 25.1559 8.24118 24.3999 10.4596L21.1554 19.7875L25.2504 20.5019H25.2472ZM20.9317 29.1812C19.9994 29.1436 19.1173 29.0465 18.2857 28.8992C17.4541 28.7426 16.654 28.5295 15.9012 28.2506C16.2477 28.94 16.5533 29.6293 16.8242 30.3186C17.095 31.0017 17.3155 31.6785 17.4857 32.3428C18.0086 31.6973 18.5566 31.1145 19.1236 30.5881C19.7032 30.0554 20.3017 29.5917 20.9286 29.1844L20.9317 29.1812ZM17.2652 19.4021L13.7592 9.32844C12.852 6.76851 12.1527 5.09844 11.6487 4.30884C11.1542 3.52551 10.6092 3.13071 10.0296 3.13071C9.576 3.13071 9.2106 3.29991 8.9271 3.64458C8.6436 3.98924 8.505 4.44985 8.505 5.03578C8.505 6.02591 8.883 7.74611 9.639 10.1995C10.395 12.6529 11.529 15.8708 13.0473 19.8502C13.1796 19.612 13.3623 19.4428 13.5985 19.3488C13.8379 19.2548 14.1656 19.2047 14.5751 19.2047C14.7011 19.2047 14.9625 19.2172 15.3499 19.236C15.7374 19.2611 16.3737 19.3112 17.262 19.399L17.2652 19.4021ZM14.0805 34.9904C14.449 34.9904 14.7861 34.8212 15.0885 34.4891C15.3909 34.1538 15.5421 33.7935 15.5421 33.4081C15.5421 33.0008 15.2491 32.0451 14.6538 30.5505C14.0553 29.059 13.3182 27.5926 12.4299 26.145C11.781 25.0734 11.1384 24.2588 10.5147 23.7104C9.8847 23.1621 9.2925 22.8864 8.7318 22.8864C8.27505 22.8864 7.7742 23.1746 7.2198 23.7418C6.66855 24.3152 6.3945 24.8447 6.3945 25.3398C6.3945 25.8568 6.66225 26.6307 7.2072 27.6647C7.7427 28.6987 8.4672 29.7954 9.3807 30.9547C10.332 32.2237 11.2298 33.2107 12.0708 33.9251C12.9213 34.6332 13.5828 34.9904 14.0868 34.9904H14.0805ZM4.3533 34.2165C4.65255 34.5862 5.0778 35.1252 5.6133 35.8302C7.0434 37.7916 8.36325 38.7692 9.576 38.7692C9.9855 38.7692 10.354 38.6439 10.6785 38.3807C11.0029 38.1206 11.1636 37.8543 11.1636 37.5723C11.1636 37.2464 10.9431 36.7138 10.5147 35.9555C10.08 35.2035 9.4878 34.3575 8.7318 33.4081C7.86555 32.3114 7.1442 31.5093 6.57405 31.0048C5.9976 30.4972 5.53455 30.2434 5.18805 30.2434C4.43205 30.2434 3.73905 30.6508 3.0996 31.456C2.4633 32.2613 2.14515 33.2107 2.14515 34.3074C2.14515 35.1941 2.36565 36.178 2.80665 37.2652C3.24765 38.3525 3.8934 39.4429 4.74075 40.5427C6.0165 42.2441 7.60725 43.5507 9.49725 44.4594C11.3872 45.3806 13.482 45.838 15.7784 45.838C19.9931 45.838 23.5273 44.2714 26.3718 41.138C29.2162 38.0047 30.6274 34.0912 30.6274 29.3786C30.6274 27.9373 30.5235 26.7905 30.3124 25.9414C30.0919 25.0954 29.736 24.4687 29.2415 24.0833C28.35 23.3564 26.6269 22.6984 24.0597 22.1156C21.4987 21.5359 18.8181 21.2382 16.0272 21.2382C15.2523 21.2382 14.6979 21.373 14.3735 21.6299C14.049 21.8868 13.8852 22.3318 13.8852 22.9553C13.8852 24.4186 14.7042 25.4808 16.3517 26.1325C17.996 26.7905 20.6577 27.1164 24.3401 27.1164H25.663C25.9717 27.1164 26.2143 27.2292 26.397 27.4548C26.586 27.6804 26.7057 28.0188 26.775 28.47C26.4033 28.8146 25.6473 29.2094 24.5007 29.6512C23.3541 30.0899 22.4752 30.5286 21.8736 30.9578C20.5758 31.9041 19.5332 33.0258 18.7425 34.3293C17.955 35.6328 17.5581 36.8673 17.5581 38.0266C17.5581 38.7379 17.725 39.5933 18.0621 40.596C18.396 41.5986 18.5661 42.2128 18.5661 42.4446V42.6765L18.5031 42.9648C17.5455 42.9021 16.7958 42.3475 16.2445 41.3041C15.6902 40.2607 15.4161 38.8664 15.4161 37.1211V36.8328C15.2428 36.9832 15.0759 37.0898 14.9121 37.1556C14.7546 37.2182 14.5719 37.2496 14.3766 37.2496C14.1813 37.2496 13.9986 37.2339 13.8285 37.2057C13.6521 37.1744 13.4568 37.1211 13.2394 37.0616C13.3024 37.2966 13.3529 37.5316 13.3844 37.7509C13.4159 37.9796 13.4347 38.1582 13.4347 38.2836C13.4347 39.0826 13.1197 39.7656 12.4897 40.3328C11.866 40.9062 11.1163 41.1913 10.2532 41.1913C8.89245 41.1913 7.5033 40.527 6.09525 39.2048C4.69035 37.8794 3.99105 36.5853 3.99105 35.3132C3.99105 35.0813 4.01625 34.8682 4.0698 34.6865C4.12335 34.4985 4.2147 34.3481 4.34385 34.2165H4.3533ZM27.5846 21.0565C29.5312 21.42 30.9047 22.2378 31.7048 23.5099C32.5049 24.782 32.9017 26.7842 32.9017 29.5134C32.9017 34.934 31.2637 39.374 27.9877 42.83C24.7117 46.2736 20.5223 48.0032 15.413 48.0032C13.3969 48.0032 11.4439 47.6428 9.55395 46.919C7.66395 46.1984 6.0354 45.1957 4.67145 43.9048C3.1122 42.4822 1.94355 40.9782 1.1655 39.399C0.38745 37.8167 0 36.203 0 34.5424C0 32.6937 0.3969 31.2586 1.197 30.2497C2.00025 29.2345 3.2634 28.5483 4.9959 28.1817C4.6683 27.4297 4.4289 26.7905 4.28085 26.2766C4.12965 25.7596 4.05405 25.3617 4.05405 25.086C4.05405 24.1146 4.5675 23.1245 5.59755 22.1093C6.62445 21.1004 7.59465 20.5928 8.50185 20.5928C8.89245 20.5928 9.2988 20.6648 9.73035 20.8058C10.1651 20.9437 10.6627 21.1818 11.2266 21.4952C9.5634 16.814 8.35065 13.1918 7.5978 10.635C6.8355 8.08765 6.4638 6.32985 6.4638 5.35851C6.4638 4.02685 6.804 2.96465 7.497 2.17818C8.19 1.39485 9.1287 1.00004 10.3225 1.00004C12.3543 1.00004 14.9278 5.51831 18.04 14.5548C18.585 16.1058 18.9945 17.3028 19.278 18.1362L20.286 15.2943C23.3982 6.34551 26.082 1.86484 28.3311 1.86484C29.4336 1.86484 30.3156 2.24084 30.9771 2.98345C31.6386 3.72604 31.9662 4.72244 31.9662 5.96951C31.9662 6.91578 31.6039 8.65164 30.8794 11.1646C30.1549 13.6869 29.0525 16.9769 27.5846 21.0471" fill="#01020F"/>
<mask id="path-2-inside-1" fill="white">
<path fill-rule="evenodd" clip-rule="evenodd" d="M49.8115 7C49.8115 3.68629 52.4978 1 55.8115 1C59.1253 1 61.8115 3.68629 61.8115 7V28H62.1906C62.541 28 62.8323 27.7303 62.8591 27.381L63.5235 18.7447C63.686 16.6316 65.448 15 67.5673 15C69.8795 15 71.7238 16.9301 71.6188 19.2399L71.0266 32.2693C70.9062 34.916 68.7254 37 66.0759 37H61.8115V43.3623C61.8115 45.5376 60.4232 47.5018 58.2702 47.8123C57.5006 47.9232 56.6612 48 55.8115 48C54.9619 48 54.1225 47.9232 53.3529 47.8123C51.1999 47.5018 49.8115 45.5376 49.8115 43.3623V33H44.5472C41.8977 33 39.7168 30.916 39.5965 28.2693L39.0043 15.2399C38.8993 12.9301 40.7436 11 43.0558 11C45.1751 11 46.9371 12.6316 47.0996 14.7447L47.7639 23.381C47.7908 23.7303 48.0821 24 48.4324 24H49.8115V7Z"/>
</mask>
<path d="M61.8115 28H59.5615V30.25H61.8115V28ZM62.8591 27.381L65.1025 27.5535V27.5535L62.8591 27.381ZM63.5235 18.7447L61.2801 18.5721L63.5235 18.7447ZM71.6188 19.2399L69.3711 19.1377L71.6188 19.2399ZM71.0266 32.2693L73.2742 32.3714V32.3714L71.0266 32.2693ZM61.8115 37V34.75H59.5615V37H61.8115ZM58.2702 47.8123L57.949 45.5853H57.949L58.2702 47.8123ZM53.3529 47.8123L53.6741 45.5853H53.6741L53.3529 47.8123ZM49.8115 33H52.0615V30.75H49.8115V33ZM39.5965 28.2693L37.3488 28.3714L39.5965 28.2693ZM39.0043 15.2399L41.2519 15.1377L39.0043 15.2399ZM47.0996 14.7447L49.343 14.5721L47.0996 14.7447ZM47.7639 23.381L50.0073 23.2084V23.2084L47.7639 23.381ZM49.8115 24V26.25H52.0615V24H49.8115ZM55.8115 -1.25C51.2552 -1.25 47.5615 2.44365 47.5615 7H52.0615C52.0615 4.92893 53.7405 3.25 55.8115 3.25V-1.25ZM64.0615 7C64.0615 2.44365 60.3679 -1.25 55.8115 -1.25V3.25C57.8826 3.25 59.5615 4.92893 59.5615 7H64.0615ZM64.0615 28V7H59.5615V28H64.0615ZM62.1906 25.75H61.8115V30.25H62.1906V25.75ZM60.6158 27.2084C60.6791 26.3855 61.3653 25.75 62.1906 25.75V30.25C63.7167 30.25 64.9855 29.0751 65.1025 27.5535L60.6158 27.2084ZM61.2801 18.5721L60.6158 27.2084L65.1025 27.5535L65.7668 18.9172L61.2801 18.5721ZM67.5673 12.75C64.2723 12.75 61.5328 15.2868 61.2801 18.5721L65.7668 18.9172C65.8392 17.9765 66.6237 17.25 67.5673 17.25V12.75ZM73.8665 19.3421C74.0297 15.7508 71.1622 12.75 67.5673 12.75V17.25C68.5967 17.25 69.4179 18.1093 69.3711 19.1377L73.8665 19.3421ZM73.2742 32.3714L73.8665 19.3421L69.3711 19.1377L68.7789 32.1671L73.2742 32.3714ZM66.0759 39.25C69.9283 39.25 73.0993 36.2199 73.2742 32.3714L68.7789 32.1671C68.7132 33.6122 67.5225 34.75 66.0759 34.75V39.25ZM61.8115 39.25H66.0759V34.75H61.8115V39.25ZM64.0615 43.3623V37H59.5615V43.3623H64.0615ZM58.5913 50.0392C62.0735 49.5371 64.0615 46.4163 64.0615 43.3623H59.5615C59.5615 44.659 58.773 45.4665 57.949 45.5853L58.5913 50.0392ZM55.8115 50.25C56.7925 50.25 57.7419 50.1617 58.5913 50.0392L57.949 45.5853C57.2592 45.6848 56.5299 45.75 55.8115 45.75V50.25ZM53.0318 50.0392C53.8812 50.1617 54.8306 50.25 55.8115 50.25V45.75C55.0932 45.75 54.3639 45.6848 53.6741 45.5853L53.0318 50.0392ZM47.5615 43.3623C47.5615 46.4163 49.5496 49.5371 53.0318 50.0392L53.6741 45.5853C52.8501 45.4665 52.0615 44.659 52.0615 43.3623H47.5615ZM47.5615 33V43.3623H52.0615V33H47.5615ZM44.5472 35.25H49.8115V30.75H44.5472V35.25ZM37.3488 28.3714C37.5238 32.2199 40.6948 35.25 44.5472 35.25V30.75C43.1006 30.75 41.9099 29.6122 41.8442 28.1671L37.3488 28.3714ZM36.7566 15.3421L37.3488 28.3714L41.8442 28.1671L41.2519 15.1377L36.7566 15.3421ZM43.0558 8.75C39.4609 8.75 36.5934 11.7508 36.7566 15.3421L41.2519 15.1377C41.2052 14.1093 42.0264 13.25 43.0558 13.25V8.75ZM49.343 14.5721C49.0903 11.2868 46.3508 8.75 43.0558 8.75V13.25C43.9994 13.25 44.7839 13.9765 44.8562 14.9172L49.343 14.5721ZM50.0073 23.2084L49.343 14.5721L44.8562 14.9172L45.5206 23.5535L50.0073 23.2084ZM48.4324 21.75C49.2578 21.75 49.944 22.3855 50.0073 23.2084L45.5206 23.5535C45.6376 25.0751 46.9064 26.25 48.4324 26.25V21.75ZM49.8115 21.75H48.4324V26.25H49.8115V21.75ZM47.5615 7V24H52.0615V7H47.5615Z" fill="#01020F" mask="url(#path-2-inside-1)"/>
<path d="M49.8125 25H52.0779C53.0732 25 53.9171 25.7319 54.0578 26.7172L54.4864 29.7172C54.6585 30.922 53.7236 32 52.5065 32H49.8125" stroke="#01020F" stroke-width="2.5"/>
<path d="M116 2.5L115.497 1.49377L114.373 2.05588L115.056 3.11116L116 2.5ZM127.25 6.44956L126.242 6.94906L127.25 8.98337L128.258 6.94906L127.25 6.44956ZM121.5 11L121.105 12.0534L124.296 13.2499L122.445 10.3888L121.5 11ZM119.713 10.2801L119.279 11.3179H119.279L119.713 10.2801ZM112 11L111.253 10.1592L110.303 11.0031L111.256 11.8436L112 11ZM120.5 18.5V19.625H123.475L121.244 17.6564L120.5 18.5ZM118.732 18.3905L118.627 19.5107L118.627 19.5107L118.732 18.3905ZM113 21.5L111.943 21.1155L111.511 22.302L112.739 22.5944L113 21.5ZM123.5 24L123.239 25.0944L123.507 25.158L123.773 25.0914L123.5 24ZM127.25 23.0625L127.523 21.9711L127.25 21.9029L126.977 21.9711L127.25 23.0625ZM131 24L130.727 25.0914L130.994 25.158L131.261 25.0944L131 24ZM141.5 21.5L141.761 22.5944L142.989 22.302L142.557 21.1155L141.5 21.5ZM135.768 18.3905L135.873 19.5107V19.5107L135.768 18.3905ZM134 18.5L133.256 17.6564L131.025 19.625H134V18.5ZM142.5 11L143.244 11.8436L144.197 11.0031L143.247 10.1592L142.5 11ZM134.787 10.2801L135.221 11.3179H135.221L134.787 10.2801ZM133 11L132.055 10.3888L130.204 13.2499L133.395 12.0534L133 11ZM138.5 2.5L139.445 3.11116L140.127 2.05588L139.003 1.49377L138.5 2.5ZM116.503 3.50623C119.19 2.16283 121.263 2.44304 122.815 3.27057C124.433 4.13303 125.603 5.65908 126.242 6.94906L128.258 5.95007C127.481 4.3824 126.027 2.43329 123.874 1.28519C121.655 0.102159 118.812 -0.163595 115.497 1.49377L116.503 3.50623ZM122.445 10.3888L116.945 1.88884L115.056 3.11116L120.556 11.6112L122.445 10.3888ZM119.279 11.3179C119.828 11.5481 120.437 11.803 121.105 12.0534L121.895 9.94663C121.273 9.71322 120.701 9.47401 120.147 9.24235L119.279 11.3179ZM112.747 11.8408C114.128 10.6135 115.082 10.3044 115.907 10.3082C116.832 10.3124 117.785 10.6928 119.279 11.3179L120.147 9.24235C118.771 8.66647 117.377 8.06484 115.918 8.05822C114.359 8.05114 112.891 8.70248 111.253 10.1592L112.747 11.8408ZM121.244 17.6564L112.744 10.1564L111.256 11.8436L119.756 19.3436L121.244 17.6564ZM118.627 19.5107C119.198 19.564 119.842 19.625 120.5 19.625V17.375C119.965 17.375 119.424 17.3253 118.836 17.2704L118.627 19.5107ZM114.057 21.8845C114.623 20.3284 115.282 19.8119 115.863 19.5964C116.558 19.3384 117.396 19.3957 118.627 19.5107L118.836 17.2704C117.734 17.1674 116.347 17.0169 115.08 17.4869C113.699 17.9993 112.659 19.1465 111.943 21.1155L114.057 21.8845ZM123.761 22.9056L113.261 20.4056L112.739 22.5944L123.239 25.0944L123.761 22.9056ZM126.977 21.9711L123.227 22.9086L123.773 25.0914L127.523 24.1539L126.977 21.9711ZM126.977 24.1539L130.727 25.0914L131.273 22.9086L127.523 21.9711L126.977 24.1539ZM131.261 25.0944L141.761 22.5944L141.239 20.4056L130.739 22.9056L131.261 25.0944ZM142.557 21.1155C141.841 19.1465 140.801 17.9993 139.42 17.4869C138.153 17.0169 136.766 17.1674 135.664 17.2704L135.873 19.5107C137.104 19.3957 137.942 19.3384 138.637 19.5964C139.218 19.8119 139.877 20.3284 140.443 21.8845L142.557 21.1155ZM135.664 17.2704C135.076 17.3253 134.536 17.375 134 17.375V19.625C134.658 19.625 135.302 19.564 135.873 19.5107L135.664 17.2704ZM134.744 19.3436L143.244 11.8436L141.756 10.1564L133.256 17.6564L134.744 19.3436ZM143.247 10.1592C141.609 8.70248 140.141 8.05114 138.582 8.05822C137.123 8.06484 135.729 8.66647 134.353 9.24234L135.221 11.3179C136.715 10.6928 137.668 10.3124 138.593 10.3082C139.418 10.3044 140.372 10.6135 141.753 11.8408L143.247 10.1592ZM134.353 9.24234C133.799 9.47401 133.227 9.71322 132.605 9.94663L133.395 12.0534C134.063 11.803 134.672 11.5481 135.221 11.3179L134.353 9.24234ZM133.945 11.6112L139.445 3.11116L137.555 1.88884L132.055 10.3888L133.945 11.6112ZM139.003 1.49377C135.688 -0.163595 132.845 0.102159 130.626 1.28519C128.473 2.43329 127.019 4.3824 126.242 5.95007L128.258 6.94906C128.897 5.65908 130.067 4.13303 131.685 3.27057C133.237 2.44304 135.31 2.16283 137.997 3.50623L139.003 1.49377Z" fill="#01020F"/>
<path d="M136.375 35C136.375 38.3632 135.325 41.367 133.679 43.5065C132.035 45.6448 129.84 46.875 127.5 46.875C125.16 46.875 122.965 45.6448 121.321 43.5065C119.675 41.367 118.625 38.3632 118.625 35C118.625 31.6368 119.675 28.633 121.321 26.4935C122.965 24.3552 125.16 23.125 127.5 23.125C129.84 23.125 132.035 24.3552 133.679 26.4935C135.325 28.633 136.375 31.6368 136.375 35Z" stroke="#01020F" stroke-width="2.25"/>
<path d="M118.5 33H136" stroke="black" stroke-width="2.25"/>
<path d="M120 28L134 28" stroke="black" stroke-width="2.25"/>
<path d="M119 38H136" stroke="black" stroke-width="2.25"/>
<path d="M121 43L134 43" stroke="black" stroke-width="2.25"/>
<path d="M194.305 17.1884C194.305 17.1884 183.978 12.2107 175.897 13.1083C161.081 14.7539 153.081 26.1847 153 35.8715C153 44.471 153 47 156.143 47H202.106C204.264 47 206.044 45.2895 205.937 43.1336C205.401 32.407 201.298 16.2056 187.57 15.1314C172.056 13.9174 168 25.5 166.122 34.8715C164.997 40.4833 161.734 42.977 161.734 42.977" stroke="black" stroke-width="2.25" stroke-linecap="round"/>
<path d="M158 47C157.334 46.1667 154.9 43.5 156.5 43.5C159 43.5 159 41.618 159 40.5C159 39.5 158.5 37 161 37C162 37 159.5 33 161 32.5C162.5 32 164.5 32 164 30C163.5 28 164.5 26 166 26C167.2 26 168 24.5 169 24.5" stroke="black" stroke-width="2.25"/>
<path d="M159 38.5L156.401 32.0035C156.185 31.4623 156.475 30.8515 157.032 30.6776L163.069 28.791C163.587 28.6292 163.881 28.0837 163.732 27.5618L162.364 22.7747C162.182 22.1359 162.661 21.5 163.326 21.5H169.095C169.609 21.5 170.039 21.1107 170.09 20.5995L170.392 17.5782C170.45 16.9972 170.992 16.5894 171.566 16.6938L176 17.5" stroke="black" stroke-width="2.25"/>
<path d="M96.6999 34.82C98.5799 34.82 99.6199 36.82 99.6199 39.38C99.6199 41.74 97.9799 46.38 92.2599 46.38C88.0999 46.38 85.5799 43.26 85.5799 38.86C85.5799 34.46 87.3399 31.5 91.7399 31.5H93.0199C93.3399 31.5 93.6199 31.26 93.6199 30.98C93.6199 30.7 93.3799 30.42 92.9799 30.42H91.8599C88.0999 30.42 86.3799 27.58 86.3799 23.46C86.3799 20.34 88.1399 17.5 91.9399 17.5C93.8199 17.5 95.4199 18.66 95.4199 20.78C95.4199 22.98 93.0199 23.34 92.0199 23.42C92.2999 25.3 93.5399 25.86 94.7399 25.86C96.6999 25.86 98.4599 24.34 98.4599 21.94C98.4599 18.14 95.3399 16.3 91.3399 16.3C85.8199 16.3 81.6999 19.14 81.6999 24.26C81.6999 28.94 85.2599 30.54 88.0999 30.78C83.0999 31.34 80.4199 34.7 80.4199 39.1C80.4199 44.34 84.1399 47.82 91.0199 47.82C99.0599 47.82 102.18 42.98 102.18 39.38C102.18 37.3 101.46 35.22 99.1399 34.46L101.74 34.02C104.38 33.58 106.14 32.66 106.14 30.42C106.14 28.78 104.78 27.74 103.34 27.74C102.54 27.74 101.7 28.1 101.1 28.9C101.98 29.26 102.54 30.22 102.54 31.1C102.54 31.98 102.02 32.86 100.7 33.1L94.9399 34.1C93.4199 34.38 90.8999 35.3 90.8999 37.74C90.8999 39.46 91.9799 40.22 93.3399 40.22C94.0599 40.22 94.8599 40.02 95.6199 39.58C94.8999 38.74 94.5399 37.78 94.5399 36.94C94.5399 35.78 95.2599 34.82 96.6999 34.82Z" fill="black"/>
</svg>
